<svg width="126" height="22" viewBox="0 0 126 22" fill="none" xmlns="http://www.w3.org/2000/svg">
<path d="M0.82 2.576V1.736H5.972L14.036 18.872L13.112 21H9.472L0.82 2.576ZM16.64 12.908H16.528L14.652 17.444L12.244 12.292L16.64 1.736H21.96V21H16.64V12.908ZM0.82 5.348L5.972 16.324V21H0.82V5.348Z" fill="#2D4872"/>
<path d="M32.6774 12.152C32.6774 11.6667 32.6588 11.3213 32.6214 11.116C32.5841 10.9107 32.4721 10.7613 32.2854 10.668C32.1174 10.5747 31.8001 10.5093 31.3334 10.472C31.0534 10.4533 30.4468 10.444 29.5134 10.444C28.6174 10.444 27.7868 10.4813 27.0214 10.556L25.5374 10.64V7C27.2921 6.664 29.1868 6.496 31.2214 6.496C32.7894 6.496 34.0121 6.608 34.8894 6.832C35.7854 7.056 36.4574 7.41067 36.9054 7.896C37.2974 8.344 37.5494 8.91333 37.6614 9.604C37.7921 10.2947 37.8574 11.256 37.8574 12.488V21H32.6774V12.152ZM28.5334 21.196C27.2454 21.196 26.2934 20.8413 25.6774 20.132C25.0614 19.404 24.7534 18.312 24.7534 16.856C24.7534 15.96 24.8188 15.2413 24.9494 14.7C25.0801 14.14 25.3041 13.7013 25.6214 13.384C25.9388 13.048 26.3774 12.8147 26.9374 12.684C27.4974 12.5347 28.2348 12.46 29.1494 12.46L31.5014 12.516V15.008H31.2214C30.7921 15.008 30.5121 15.0173 30.3814 15.036C30.0081 15.0547 29.8121 15.232 29.7934 15.568C29.7748 15.68 29.7654 15.9133 29.7654 16.268C29.7654 16.548 29.7748 16.7627 29.7934 16.912C29.8308 17.0613 29.8868 17.1827 29.9614 17.276C30.0548 17.4067 30.1948 17.4813 30.3814 17.5C30.6428 17.5373 30.9228 17.556 31.2214 17.556H31.5014V20.412C31.0908 20.7293 30.6521 20.9347 30.1854 21.028C29.7374 21.14 29.1868 21.196 28.5334 21.196ZM39.7507 6.72H45.4067L55.0387 21H49.3827L39.7507 6.72ZM48.3467 8.96L49.5227 6.72H54.8427L51.0067 12.908L48.3467 8.96ZM43.5867 14.532L46.2467 18.48L44.9027 21H39.5827L43.5867 14.532ZM81.245 7.532C81.637 7.15867 82.0943 6.89733 82.617 6.748C83.1583 6.58 83.821 6.496 84.605 6.496V11.172C83.765 11.172 83.0743 11.228 82.533 11.34C82.0103 11.452 81.581 11.648 81.245 11.928V7.532ZM74.889 6.72H80.069V21H74.889V6.72ZM94.7635 13.888C94.7635 12.936 94.7542 12.3013 94.7355 11.984C94.7168 11.536 94.6608 11.2 94.5675 10.976C94.4742 10.7333 94.3248 10.584 94.1195 10.528C93.8955 10.472 93.5875 10.444 93.1955 10.444H92.8035V6.496H93.1955C94.8195 6.496 96.0888 6.62667 97.0035 6.888C97.9182 7.13067 98.5995 7.54133 99.0475 8.12C99.4582 8.64267 99.7195 9.34267 99.8315 10.22C99.9622 11.0787 100.028 12.3013 100.028 13.888C100.028 15.3627 99.9808 16.5107 99.8875 17.332C99.8128 18.1347 99.6168 18.7973 99.2995 19.32C98.9448 19.8987 98.4128 20.3373 97.7035 20.636C96.9942 20.916 96.0142 21.0933 94.7635 21.168V13.888ZM93.1955 21.224C91.5715 21.224 90.3022 21.1027 89.3875 20.86C88.4728 20.6173 87.7915 20.2067 87.3435 19.628C86.9328 19.1053 86.6622 18.4147 86.5315 17.556C86.4195 16.6973 86.3635 15.4747 86.3635 13.888C86.3635 12.432 86.4102 11.2933 86.5035 10.472C86.5968 9.65067 86.8022 8.96933 87.1195 8.428C87.4555 7.83067 87.9782 7.392 88.6875 7.112C89.3968 6.81333 90.3768 6.62667 91.6275 6.552V13.888C91.6275 14.84 91.6368 15.4653 91.6555 15.764C91.6742 16.212 91.7302 16.548 91.8235 16.772C91.9168 16.996 92.0755 17.136 92.2995 17.192C92.4862 17.248 92.7848 17.276 93.1955 17.276H93.5875V21.224H93.1955ZM101.715 6.72H104.347V6.412C104.347 4.82533 104.459 3.62133 104.683 2.8C104.907 1.97867 105.318 1.38133 105.915 1.008C106.475 0.653332 107.25 0.429332 108.239 0.335999C109.228 0.242666 110.796 0.195999 112.943 0.195999V3.78C111.972 3.78 111.338 3.78933 111.039 3.808C110.591 3.82667 110.246 3.892 110.003 4.004C109.779 4.116 109.648 4.284 109.611 4.508C109.555 4.732 109.527 5.04933 109.527 5.46V6.72H112.943V10.668H101.715V6.72ZM104.347 11.788H109.527V21H104.347V11.788ZM113.938 6.72H116.57V6.412C116.57 4.82533 116.682 3.62133 116.906 2.8C117.13 1.97867 117.54 1.38133 118.138 1.008C118.698 0.653332 119.472 0.429332 120.462 0.335999C121.451 0.242666 123.019 0.195999 125.166 0.195999V3.78C124.195 3.78 123.56 3.78933 123.262 3.808C122.814 3.82667 122.468 3.892 122.226 4.004C122.002 4.116 121.871 4.284 121.834 4.508C121.778 4.732 121.75 5.04933 121.75 5.46V6.72H125.166V10.668H113.938V6.72ZM116.57 11.788H121.75V21H116.57V11.788Z" fill="#171616"/>
<path d="M57.0661 1.736H62.6661V21H57.0661V1.736ZM63.8421 10.724H64.5141C65.1114 10.724 65.5501 10.7053 65.8301 10.668C66.1288 10.612 66.3621 10.5 66.5301 10.332C66.6981 10.1827 66.8008 9.968 66.8381 9.688C66.8941 9.38933 66.9221 8.95067 66.9221 8.372C66.9221 7.79333 66.8941 7.364 66.8381 7.084C66.8008 6.78533 66.6981 6.552 66.5301 6.384C66.3621 6.23467 66.1288 6.14133 65.8301 6.104C65.5314 6.048 65.0928 6.02 64.5141 6.02H63.8421V1.736H66.1661C67.5474 1.736 68.6674 1.876 69.5261 2.156C70.4034 2.41733 71.0661 2.828 71.5141 3.388C71.9434 3.91067 72.2328 4.57333 72.3821 5.376C72.5314 6.16 72.6061 7.15867 72.6061 8.372C72.6061 9.52933 72.5314 10.4907 72.3821 11.256C72.2514 12.0213 71.9808 12.6653 71.5701 13.188C71.1034 13.7853 70.4314 14.2427 69.5541 14.56C68.6954 14.8587 67.5661 15.008 66.1661 15.008H63.8421V10.724Z" fill="#6CAC3D"/>
</svg>
