<svg width="18" height="18" viewBox="0 0 18 18" fill="none" xmlns="http://www.w3.org/2000/svg">
<path d="M12.8725 11H12.0825L11.8025 10.73C13.0025 9.33002 13.6225 7.42002 13.2825 5.39002C12.8125 2.61002 10.4925 0.390015 7.69247 0.0500152C3.46247 -0.469985 -0.097533 3.09001 0.422467 7.32001C0.762467 10.12 2.98247 12.44 5.76247 12.91C7.79247 13.25 9.70247 12.63 11.1025 11.43L11.3725 11.71V12.5L15.6225 16.75C16.0325 17.16 16.7025 17.16 17.1125 16.75C17.5225 16.34 17.5225 15.67 17.1125 15.26L12.8725 11ZM6.87247 11C4.38247 11 2.37247 8.99002 2.37247 6.50002C2.37247 4.01002 4.38247 2.00002 6.87247 2.00002C9.36247 2.00002 11.3725 4.01002 11.3725 6.50002C11.3725 8.99002 9.36247 11 6.87247 11Z" fill="white"/>
</svg>
